<svg width="1819" height="377" viewBox="0 0 1819 377" fill="none" xmlns="http://www.w3.org/2000/svg">
<path d="M18.9056 319.478C9.75983 304.908 3.93979 289.427 1.48014 273.036C-1.01417 256.644 -0.355949 240.568 3.45479 224.842C7.26553 209.117 13.8824 194.301 23.3746 180.432C32.8321 166.597 44.9572 154.934 59.7498 145.442C74.5424 135.951 90.1664 129.822 106.657 126.985C123.181 124.148 139.29 124.358 155.018 127.58C170.746 130.802 185.4 137.072 199.015 146.318C212.63 155.564 223.993 167.473 233.138 182.043C242.284 196.613 248.07 212.024 250.495 228.345C252.92 244.631 252.227 260.672 248.451 276.398C244.64 292.159 237.954 306.974 228.392 320.879C218.831 334.784 206.671 346.447 191.879 355.938C177.086 365.43 161.497 371.559 145.076 374.326C128.655 377.093 112.581 376.883 96.8525 373.626C81.1246 370.403 66.5052 364.204 52.9598 355.028C39.4143 345.886 28.0514 334.013 18.9056 319.443V319.478ZM189.939 352.926C200.331 346.272 208.403 337.34 214.189 326.133C219.939 314.925 223.334 302.491 224.339 288.797C225.344 275.102 223.923 260.812 220.078 245.962C216.233 231.112 209.928 216.647 201.128 202.637C192.225 188.452 181.936 176.439 170.227 166.597C158.552 156.755 146.392 149.435 133.782 144.602C121.137 139.768 108.597 137.597 96.125 138.122C83.6535 138.613 72.2213 142.22 61.8284 148.875C51.4355 155.564 43.3983 164.461 37.7168 175.598C32.0353 186.736 28.675 199.1 27.6357 212.724C26.5964 226.348 27.9821 240.568 31.7928 255.454C35.6382 270.339 42.0125 284.839 50.9158 299.059C59.7152 313.069 69.9349 325.012 81.6096 334.854C93.2843 344.696 105.479 352.086 118.158 356.989C130.837 361.928 143.378 364.169 155.746 363.714C168.148 363.258 179.511 359.721 189.939 353.031V352.926Z" fill="#333333"/>
<path d="M203.208 0C214.64 0 224.687 0.945653 233.348 2.80194C241.974 4.65823 249.664 6.79471 256.351 9.17636C263.037 11.593 269.099 13.7646 274.504 15.7259C279.908 17.6873 285.208 18.668 290.37 18.668C295.982 18.668 300.902 17.4771 305.128 15.0604C309.32 12.6438 312.646 9.07129 315.001 4.23794V83.1827C311.329 70.9592 305.856 59.9966 298.65 50.2599C291.409 40.5581 283.095 32.2924 273.707 25.5327C264.318 18.773 254.203 13.6245 243.394 10.1571C232.585 6.65462 221.673 5.0435 210.656 5.25364C194.894 5.46379 181.106 9.07129 169.362 16.0762C157.583 23.081 147.744 32.1873 139.88 43.4301C131.982 54.6729 126.058 67.4218 122.074 81.6066C118.055 95.7915 116.081 110.327 116.081 125.177C116.081 140.027 118.055 154.562 122.074 168.747C126.058 182.932 132.016 195.646 139.88 206.889C147.744 218.131 157.583 227.133 169.362 233.927C181.14 240.687 194.894 244.189 210.656 244.4C221.673 244.4 232.585 242.648 243.394 239.146C254.203 235.643 264.284 230.6 273.707 223.91C283.095 217.256 291.409 209.06 298.65 199.358C305.89 189.657 311.329 178.554 315.001 166.12V245.38C312.611 240.582 309.32 236.974 305.128 234.558C300.902 232.141 296.017 230.95 290.37 230.95C285.174 230.95 279.908 231.931 274.504 233.892C269.099 235.854 263.071 237.99 256.351 240.302C249.664 242.578 241.974 244.68 233.348 246.536C224.721 248.392 214.675 249.338 203.208 249.338C182.249 249.128 163.957 245.415 148.299 238.2C132.64 230.985 119.58 221.564 109.083 209.866C98.5859 198.203 90.7219 184.928 85.4216 170.078C80.1212 155.228 77.4883 140.062 77.4883 124.546C77.4883 109.031 80.1212 93.8651 85.4216 79.0148C90.7219 64.1645 98.5859 50.8903 109.083 39.2272C119.545 27.5641 132.605 18.1076 148.299 10.8926C163.957 3.67755 182.249 0.0700502 203.208 0.0700502V0Z" fill="#333333"/>
<path d="M1522.91 319.478C1513.76 304.908 1507.94 289.427 1505.48 273.036C1502.99 256.644 1503.64 240.568 1507.45 224.842C1511.27 209.117 1517.88 194.301 1527.37 180.432C1536.83 166.597 1548.96 154.934 1563.75 145.442C1578.54 135.951 1594.17 129.822 1610.66 126.985C1627.18 124.148 1643.29 124.358 1659.02 127.58C1674.75 130.802 1689.4 137.072 1703.02 146.318C1716.63 155.564 1727.99 167.473 1737.14 182.043C1746.28 196.613 1752.07 212.024 1754.49 228.345C1756.92 244.631 1756.23 260.672 1752.45 276.398C1748.64 292.159 1741.95 306.974 1732.39 320.879C1722.83 334.784 1710.67 346.447 1695.88 355.938C1681.09 365.43 1665.5 371.559 1649.08 374.326C1632.65 377.093 1616.58 376.883 1600.85 373.626C1585.12 370.403 1570.51 364.204 1556.96 355.028C1543.41 345.886 1532.05 334.013 1522.91 319.443V319.478ZM1693.94 352.926C1704.33 346.272 1712.4 337.34 1718.19 326.133C1723.94 314.925 1727.33 302.491 1728.34 288.797C1729.34 275.102 1727.92 260.812 1724.08 245.962C1720.23 231.112 1713.93 216.647 1705.13 202.637C1696.22 188.452 1685.94 176.439 1674.23 166.597C1662.55 156.755 1650.39 149.435 1637.78 144.602C1625.14 139.768 1612.6 137.597 1600.13 138.122C1587.65 138.613 1576.22 142.22 1565.83 148.875C1555.44 155.564 1547.4 164.461 1541.72 175.598C1536.04 186.736 1532.67 199.1 1531.64 212.724C1530.6 226.348 1531.98 240.568 1535.79 255.454C1539.64 270.339 1546.01 284.839 1554.92 299.059C1563.72 313.069 1573.93 325.012 1585.61 334.854C1597.28 344.696 1609.48 352.086 1622.16 356.989C1634.84 361.928 1647.38 364.169 1659.75 363.714C1672.15 363.258 1683.51 359.721 1693.94 353.031V352.926Z" fill="#333333"/>
<path d="M1707.21 0C1718.64 0 1728.69 0.945653 1737.35 2.80194C1745.97 4.65823 1753.66 6.79471 1760.35 9.17636C1767.04 11.593 1773.1 13.7646 1778.5 15.7259C1783.91 17.6873 1789.21 18.668 1794.37 18.668C1799.98 18.668 1804.9 17.4771 1809.13 15.0604C1813.32 12.6438 1816.65 9.07129 1819 4.23794V83.1827C1815.33 70.9592 1809.86 59.9966 1802.65 50.2599C1795.41 40.5581 1787.09 32.2924 1777.71 25.5327C1768.32 18.773 1758.2 13.6245 1747.39 10.1571C1736.59 6.65462 1725.67 5.0435 1714.66 5.25364C1698.89 5.46379 1685.11 9.07129 1673.36 16.0762C1661.58 23.081 1651.74 32.1873 1643.88 43.4301C1635.98 54.6729 1630.06 67.4218 1626.07 81.6066C1622.06 95.7915 1620.08 110.327 1620.08 125.177C1620.08 140.027 1622.06 154.562 1626.07 168.747C1630.06 182.932 1636.02 195.646 1643.88 206.889C1651.74 218.131 1661.58 227.133 1673.36 233.927C1685.14 240.687 1698.89 244.189 1714.66 244.4C1725.67 244.4 1736.59 242.648 1747.39 239.146C1758.2 235.643 1768.28 230.6 1777.71 223.91C1787.09 217.256 1795.41 209.06 1802.65 199.358C1809.89 189.657 1815.33 178.554 1819 166.12V245.38C1816.61 240.582 1813.32 236.974 1809.13 234.558C1804.9 232.141 1800.02 230.95 1794.37 230.95C1789.17 230.95 1783.91 231.931 1778.5 233.892C1773.1 235.854 1767.07 237.99 1760.35 240.302C1753.66 242.578 1745.97 244.68 1737.35 246.536C1728.72 248.392 1718.67 249.338 1707.21 249.338C1686.25 249.128 1667.96 245.415 1652.3 238.2C1636.64 230.985 1623.58 221.564 1613.08 209.866C1602.59 198.203 1594.72 184.928 1589.42 170.078C1584.12 155.228 1581.49 140.062 1581.49 124.546C1581.49 109.031 1584.12 93.8651 1589.42 79.0148C1594.72 64.1645 1602.59 50.8903 1613.08 39.2272C1623.54 27.5641 1636.61 18.1076 1652.3 10.8926C1667.96 3.67755 1686.25 0.0700502 1707.21 0.0700502V0Z" fill="#333333"/>
<path d="M394.906 194.478C385.76 179.908 379.94 164.427 377.48 148.036C374.986 131.644 375.644 115.568 379.455 99.8424C383.266 84.1165 389.882 69.3012 399.375 55.4316C408.832 41.597 420.957 29.9339 435.75 20.4423C450.542 10.9507 466.166 4.8215 482.657 1.98454C499.181 -0.852431 515.29 -0.642292 531.018 2.57994C546.746 5.80218 561.4 12.0715 575.015 21.3179C588.63 30.5643 599.993 42.4726 609.138 57.0427C618.284 71.6128 624.07 87.0235 626.495 103.345C628.92 119.631 628.227 135.672 624.451 151.398C620.64 167.159 613.954 181.974 604.392 195.879C594.831 209.784 582.671 221.447 567.879 230.938C553.086 240.43 537.497 246.559 521.076 249.326C504.655 252.093 488.581 251.883 472.853 248.626C457.125 245.403 442.505 239.204 428.96 230.028C415.414 220.886 404.051 209.013 394.906 194.443V194.478ZM565.939 227.926C576.331 221.272 584.403 212.34 590.189 201.133C595.939 189.925 599.334 177.491 600.339 163.797C601.344 150.102 599.923 135.812 596.078 120.962C592.233 106.112 585.928 91.6467 577.128 77.637C568.225 63.4522 557.936 51.4388 546.227 41.597C534.552 31.7552 522.392 24.4351 509.782 19.6018C497.137 14.7684 484.597 12.5969 472.125 13.1223C459.654 13.6126 448.221 17.2201 437.828 23.8747C427.435 30.5644 419.398 39.4605 413.717 50.5982C408.035 61.736 404.675 74.0995 403.636 87.724C402.596 101.348 403.982 115.568 407.793 130.454C411.638 145.339 418.013 159.839 426.916 174.059C435.715 188.069 445.935 200.012 457.61 209.854C469.284 219.696 481.479 227.086 494.158 231.989C506.837 236.928 519.378 239.169 531.746 238.714C544.148 238.258 555.511 234.721 565.939 228.031V227.926Z" fill="#333333"/>
<path d="M579.208 125C590.64 125 600.687 125.946 609.348 127.802C617.974 129.658 625.664 131.795 632.351 134.176C639.037 136.593 645.099 138.765 650.504 140.726C655.908 142.687 661.208 143.668 666.37 143.668C671.982 143.668 676.902 142.477 681.128 140.06C685.32 137.644 688.646 134.071 691.001 129.238V208.183C687.329 195.959 681.856 184.997 674.65 175.26C667.409 165.558 659.095 157.292 649.707 150.533C640.318 143.773 630.203 138.624 619.394 135.157C608.585 131.655 597.673 130.043 586.656 130.254C570.894 130.464 557.106 134.071 545.362 141.076C533.583 148.081 523.744 157.187 515.88 168.43C507.982 179.673 502.058 192.422 498.074 206.607C494.055 220.791 492.081 235.327 492.081 250.177C492.081 265.027 494.055 279.562 498.074 293.747C502.058 307.932 508.016 320.646 515.88 331.889C523.744 343.131 533.583 352.133 545.362 358.927C557.14 365.687 570.894 369.189 586.656 369.4C597.673 369.4 608.585 367.648 619.394 364.146C630.203 360.643 640.284 355.6 649.707 348.91C659.095 342.256 667.409 334.06 674.65 324.358C681.89 314.657 687.329 303.554 691.001 291.12V370.38C688.611 365.582 685.32 361.974 681.128 359.558C676.902 357.141 672.017 355.95 666.37 355.95C661.174 355.95 655.908 356.931 650.504 358.892C645.099 360.854 639.071 362.99 632.351 365.302C625.664 367.578 617.974 369.68 609.348 371.536C600.721 373.392 590.675 374.338 579.208 374.338C558.249 374.128 539.957 370.415 524.299 363.2C508.64 355.985 495.58 346.564 485.083 334.866C474.586 323.203 466.722 309.928 461.422 295.078C456.121 280.228 453.488 265.062 453.488 249.546C453.488 234.031 456.121 218.865 461.422 204.015C466.722 189.165 474.586 175.89 485.083 164.227C495.545 152.564 508.605 143.108 524.299 135.893C539.957 128.678 558.249 125.07 579.208 125.07V125Z" fill="#333333"/>
<path d="M833.906 194.478C824.76 179.908 818.94 164.427 816.48 148.036C813.986 131.644 814.644 115.568 818.455 99.8424C822.266 84.1165 828.882 69.3012 838.375 55.4316C847.832 41.597 859.957 29.9339 874.75 20.4423C889.542 10.9507 905.166 4.8215 921.657 1.98454C938.181 -0.852431 954.29 -0.642292 970.018 2.57994C985.746 5.80218 1000.4 12.0715 1014.02 21.3179C1027.63 30.5643 1038.99 42.4726 1048.14 57.0427C1057.28 71.6128 1063.07 87.0235 1065.49 103.345C1067.92 119.631 1067.23 135.672 1063.45 151.398C1059.64 167.159 1052.95 181.974 1043.39 195.879C1033.83 209.784 1021.67 221.447 1006.88 230.938C992.086 240.43 976.497 246.559 960.076 249.326C943.655 252.093 927.581 251.883 911.853 248.626C896.125 245.403 881.505 239.204 867.96 230.028C854.414 220.886 843.051 209.013 833.906 194.443V194.478ZM1004.94 227.926C1015.33 221.272 1023.4 212.34 1029.19 201.133C1034.94 189.925 1038.33 177.491 1039.34 163.797C1040.34 150.102 1038.92 135.812 1035.08 120.962C1031.23 106.112 1024.93 91.6467 1016.13 77.637C1007.22 63.4522 996.936 51.4388 985.227 41.597C973.552 31.7552 961.392 24.4351 948.782 19.6018C936.137 14.7684 923.597 12.5969 911.125 13.1223C898.654 13.6126 887.221 17.2201 876.828 23.8747C866.435 30.5644 858.398 39.4605 852.717 50.5982C847.035 61.736 843.675 74.0995 842.636 87.724C841.596 101.348 842.982 115.568 846.793 130.454C850.638 145.339 857.013 159.839 865.916 174.059C874.715 188.069 884.935 200.012 896.61 209.854C908.284 219.696 920.479 227.086 933.158 231.989C945.837 236.928 958.378 239.169 970.746 238.714C983.148 238.258 994.511 234.721 1004.94 228.031V227.926Z" fill="#333333"/>
<path d="M877.72 125C889.152 125 899.198 125.946 907.859 127.802C916.485 129.658 924.176 131.795 930.862 134.176C937.548 136.593 943.611 138.765 949.015 140.726C954.42 142.687 959.72 143.668 964.882 143.668C970.494 143.668 975.413 142.477 979.64 140.06C983.832 137.644 987.157 134.071 989.513 129.238V208.183C985.841 195.959 980.367 184.997 973.161 175.26C965.921 165.558 957.607 157.292 948.218 150.533C938.83 143.773 928.714 138.624 917.906 135.157C907.097 131.655 896.185 130.043 885.168 130.254C869.405 130.464 855.617 134.071 843.873 141.076C832.095 148.081 822.256 157.187 814.392 168.43C806.494 179.673 800.57 192.422 796.586 206.607C792.567 220.791 790.592 235.327 790.592 250.177C790.592 265.027 792.567 279.562 796.586 293.747C800.57 307.932 806.528 320.646 814.392 331.889C822.256 343.131 832.095 352.133 843.873 358.927C855.652 365.687 869.405 369.189 885.168 369.4C896.185 369.4 907.097 367.648 917.906 364.146C928.714 360.643 938.796 355.6 948.218 348.91C957.607 342.256 965.921 334.06 973.161 324.358C980.402 314.657 985.841 303.554 989.513 291.12V370.38C987.123 365.582 983.832 361.974 979.64 359.558C975.413 357.141 970.529 355.95 964.882 355.95C959.685 355.95 954.42 356.931 949.015 358.892C943.611 360.854 937.583 362.99 930.862 365.302C924.176 367.578 916.485 369.68 907.859 371.536C899.233 373.392 889.187 374.338 877.72 374.338C856.761 374.128 838.469 370.415 822.81 363.2C807.152 355.985 794.091 346.564 783.594 334.866C773.098 323.203 765.234 309.928 759.933 295.078C754.633 280.228 752 265.062 752 249.546C752 234.031 754.633 218.865 759.933 204.015C765.234 189.165 773.098 175.89 783.594 164.227C794.057 152.564 807.117 143.108 822.81 135.893C838.469 128.678 856.761 125.07 877.72 125.07V125Z" fill="#333333"/>
<path d="M1209.91 319.478C1200.76 304.908 1194.94 289.427 1192.48 273.036C1189.99 256.644 1190.64 240.568 1194.45 224.842C1198.27 209.117 1204.88 194.301 1214.37 180.432C1223.83 166.597 1235.96 154.934 1250.75 145.442C1265.54 135.951 1281.17 129.822 1297.66 126.985C1314.18 124.148 1330.29 124.358 1346.02 127.58C1361.75 130.802 1376.4 137.072 1390.02 146.318C1403.63 155.564 1414.99 167.473 1424.14 182.043C1433.28 196.613 1439.07 212.024 1441.49 228.345C1443.92 244.631 1443.23 260.672 1439.45 276.398C1435.64 292.159 1428.95 306.974 1419.39 320.879C1409.83 334.784 1397.67 346.447 1382.88 355.938C1368.09 365.43 1352.5 371.559 1336.08 374.326C1319.65 377.093 1303.58 376.883 1287.85 373.626C1272.12 370.403 1257.51 364.204 1243.96 355.028C1230.41 345.886 1219.05 334.013 1209.91 319.443V319.478ZM1380.94 352.926C1391.33 346.272 1399.4 337.34 1405.19 326.133C1410.94 314.925 1414.33 302.491 1415.34 288.797C1416.34 275.102 1414.92 260.812 1411.08 245.962C1407.23 231.112 1400.93 216.647 1392.13 202.637C1383.22 188.452 1372.94 176.439 1361.23 166.597C1349.55 156.755 1337.39 149.435 1324.78 144.602C1312.14 139.768 1299.6 137.597 1287.13 138.122C1274.65 138.613 1263.22 142.22 1252.83 148.875C1242.44 155.564 1234.4 164.461 1228.72 175.598C1223.04 186.736 1219.67 199.1 1218.64 212.724C1217.6 226.348 1218.98 240.568 1222.79 255.454C1226.64 270.339 1233.01 284.839 1241.92 299.059C1250.72 313.069 1260.93 325.012 1272.61 334.854C1284.28 344.696 1296.48 352.086 1309.16 356.989C1321.84 361.928 1334.38 364.169 1346.75 363.714C1359.15 363.258 1370.51 359.721 1380.94 353.031V352.926Z" fill="#333333"/>
<path d="M1253.72 0C1265.15 0 1275.2 0.945653 1283.86 2.80194C1292.49 4.65823 1300.18 6.79471 1306.86 9.17636C1313.55 11.593 1319.61 13.7646 1325.02 15.7259C1330.42 17.6873 1335.72 18.668 1340.88 18.668C1346.49 18.668 1351.41 17.4771 1355.64 15.0604C1359.83 12.6438 1363.16 9.07129 1365.51 4.23794V83.1827C1361.84 70.9592 1356.37 59.9966 1349.16 50.2599C1341.92 40.5581 1333.61 32.2924 1324.22 25.5327C1314.83 18.773 1304.71 13.6245 1293.91 10.1571C1283.1 6.65462 1272.18 5.0435 1261.17 5.25364C1245.41 5.46379 1231.62 9.07129 1219.87 16.0762C1208.09 23.081 1198.26 32.1873 1190.39 43.4301C1182.49 54.6729 1176.57 67.4218 1172.59 81.6066C1168.57 95.7915 1166.59 110.327 1166.59 125.177C1166.59 140.027 1168.57 154.562 1172.59 168.747C1176.57 182.932 1182.53 195.646 1190.39 206.889C1198.26 218.131 1208.09 227.133 1219.87 233.927C1231.65 240.687 1245.41 244.189 1261.17 244.4C1272.18 244.4 1283.1 242.648 1293.91 239.146C1304.71 235.643 1314.8 230.6 1324.22 223.91C1333.61 217.256 1341.92 209.06 1349.16 199.358C1356.4 189.657 1361.84 178.554 1365.51 166.12V245.38C1363.12 240.582 1359.83 236.974 1355.64 234.558C1351.41 232.141 1346.53 230.95 1340.88 230.95C1335.69 230.95 1330.42 231.931 1325.02 233.892C1319.61 235.854 1313.58 237.99 1306.86 240.302C1300.18 242.578 1292.49 244.68 1283.86 246.536C1275.23 248.392 1265.19 249.338 1253.72 249.338C1232.76 249.128 1214.47 245.415 1198.81 238.2C1183.15 230.985 1170.09 221.564 1159.59 209.866C1149.1 198.203 1141.23 184.928 1135.93 170.078C1130.63 155.228 1128 140.062 1128 124.546C1128 109.031 1130.63 93.8651 1135.93 79.0148C1141.23 64.1645 1149.1 50.8903 1159.59 39.2272C1170.06 27.5641 1183.12 18.1076 1198.81 10.8926C1214.47 3.67755 1232.76 0.0700502 1253.72 0.0700502V0Z" fill="#333333"/>
</svg>
